<svg width="40" height="40" viewBox="0 0 40 40" fill="none" xmlns="http://www.w3.org/2000/svg">
<g clip-path="url(#clip0_223_2175)">
<path d="M20 40C31.0457 40 40 31.0457 40 20C40 8.9543 31.0457 0 20 0C8.9543 0 0 8.9543 0 20C0 31.0457 8.9543 40 20 40Z" fill="url(#paint0_linear_223_2175)"/>
<path fill-rule="evenodd" clip-rule="evenodd" d="M20.5851 14.2003C20.6682 14.1836 20.7504 14.1633 20.8317 14.1395C20.913 14.1157 20.9932 14.0885 21.0723 14.0578C21.1513 14.0272 21.2288 13.9932 21.3049 13.9559C21.381 13.9185 21.4553 13.878 21.5279 13.8343C21.6006 13.7906 21.6712 13.7439 21.7398 13.6942C21.8084 13.6444 21.8747 13.5918 21.9388 13.5363C22.0029 13.4809 22.0645 13.4228 22.1236 13.3621C22.1827 13.3013 22.2391 13.2382 22.2928 13.1726C22.3465 13.107 22.3972 13.0393 22.4451 12.9694C22.493 12.8994 22.5378 12.8276 22.5795 12.7538C22.6212 12.68 22.6596 12.6046 22.6949 12.5275C22.7301 12.4505 22.762 12.372 22.7905 12.2922C22.819 12.2124 22.844 12.1315 22.8656 12.0495C22.8871 11.9676 22.9051 11.8849 22.9196 11.8014C22.9341 11.7179 22.9449 11.6339 22.9522 11.5495C22.9595 11.465 22.9631 11.3804 22.9631 11.2957C22.9631 11.1986 22.9583 11.1018 22.9488 11.0053C22.9393 10.9087 22.925 10.8128 22.9061 10.7176C22.8872 10.6225 22.8636 10.5285 22.8355 10.4356C22.8073 10.3427 22.7746 10.2515 22.7375 10.1618C22.7004 10.0722 22.6589 9.98455 22.6132 9.89897C22.5675 9.81339 22.5176 9.73026 22.4637 9.64957C22.4098 9.56889 22.3521 9.49104 22.2905 9.41602C22.229 9.34101 22.1639 9.2692 22.0953 9.20058C22.0266 9.13196 21.9548 9.06688 21.8798 9.00531C21.8048 8.94375 21.727 8.88602 21.6463 8.8321C21.5656 8.77819 21.4824 8.72837 21.3969 8.68262C21.3113 8.63688 21.2237 8.59544 21.134 8.5583C21.0443 8.52117 20.9531 8.48851 20.8602 8.46035C20.7674 8.43218 20.6734 8.40863 20.5782 8.3897C20.483 8.37076 20.3871 8.35654 20.2906 8.34703C20.194 8.33752 20.0972 8.33276 20.0002 8.33276C19.9031 8.33276 19.8063 8.33752 19.7097 8.34703C19.6132 8.35654 19.5173 8.37076 19.4221 8.3897C19.327 8.40863 19.233 8.43218 19.1401 8.46035C19.0472 8.48851 18.956 8.52117 18.8663 8.5583C18.7766 8.59544 18.689 8.63688 18.6034 8.68262C18.5179 8.72837 18.4347 8.77819 18.354 8.8321C18.2733 8.88602 18.1955 8.94375 18.1205 9.00531C18.0455 9.06688 17.9737 9.13196 17.9051 9.20058C17.8364 9.2692 17.7713 9.34101 17.7098 9.41602C17.6482 9.49104 17.5905 9.56889 17.5366 9.64957C17.4827 9.73026 17.4328 9.81339 17.3871 9.89897C17.3414 9.98455 17.2999 10.0722 17.2628 10.1618C17.2257 10.2515 17.193 10.3427 17.1648 10.4356C17.1367 10.5285 17.1131 10.6225 17.0942 10.7176C17.0753 10.8128 17.061 10.9087 17.0515 11.0053C17.042 11.1018 17.0372 11.1986 17.0372 11.2957C17.0372 11.3805 17.0408 11.4651 17.0481 11.5495C17.0554 11.634 17.0662 11.718 17.0807 11.8015C17.0952 11.885 17.1132 11.9678 17.1348 12.0497C17.1564 12.1317 17.1814 12.2126 17.2099 12.2924C17.2384 12.3723 17.2703 12.4507 17.3056 12.5278C17.3409 12.6049 17.3794 12.6803 17.4211 12.7541C17.4628 12.8279 17.5076 12.8998 17.5555 12.9697C17.6034 13.0397 17.6542 13.1074 17.7079 13.173C17.7616 13.2386 17.818 13.3018 17.8771 13.3625C17.9362 13.4232 17.9979 13.4813 18.062 13.5368C18.1261 13.5922 18.1925 13.6448 18.2611 13.6946C18.3298 13.7443 18.4004 13.791 18.4731 13.8347C18.5457 13.8784 18.6201 13.9189 18.6962 13.9562C18.7723 13.9935 18.8499 14.0275 18.9289 14.0582C19.008 14.0888 19.0882 14.116 19.1695 14.1398C19.2509 14.1635 19.3331 14.1838 19.4162 14.2005L15.5563 20.6337L12.076 18.8935C12.2443 18.6472 12.3726 18.3815 12.4607 18.0965C12.5488 17.8115 12.5928 17.5198 12.5928 17.2215C12.5928 17.1244 12.5881 17.0276 12.5786 16.931C12.569 16.8345 12.5548 16.7386 12.5359 16.6434C12.517 16.5483 12.4934 16.4542 12.4652 16.3614C12.4371 16.2685 12.4044 16.1773 12.3673 16.0876C12.3301 15.998 12.2887 15.9103 12.243 15.8248C12.1972 15.7392 12.1474 15.656 12.0935 15.5754C12.0396 15.4947 11.9818 15.4168 11.9203 15.3418C11.8587 15.2668 11.7936 15.195 11.725 15.1264C11.6564 15.0577 11.5846 14.9927 11.5096 14.9311C11.4345 14.8695 11.3567 14.8118 11.276 14.7579C11.1953 14.704 11.1122 14.6541 11.0266 14.6084C10.941 14.5627 10.8534 14.5212 10.7638 14.4841C10.6741 14.447 10.5829 14.4143 10.49 14.3861C10.3971 14.358 10.3031 14.3344 10.2079 14.3155C10.1128 14.2965 10.0169 14.2823 9.92032 14.2728C9.82375 14.2633 9.72695 14.2585 9.62991 14.2585C9.53287 14.2585 9.43607 14.2633 9.33949 14.2728C9.24292 14.2823 9.14705 14.2965 9.05187 14.3155C8.9567 14.3344 8.86268 14.358 8.76982 14.3861C8.67696 14.4143 8.58571 14.447 8.49605 14.4841C8.4064 14.5212 8.31878 14.5627 8.2332 14.6084C8.14762 14.6541 8.06449 14.704 7.9838 14.7579C7.90312 14.8118 7.82527 14.8695 7.75025 14.9311C7.67524 14.9927 7.60343 15.0577 7.53481 15.1264C7.46619 15.195 7.4011 15.2668 7.33954 15.3418C7.27798 15.4168 7.22025 15.4947 7.16633 15.5754C7.11242 15.656 7.06259 15.7392 7.01685 15.8248C6.97111 15.9103 6.92967 15.998 6.89253 16.0876C6.8554 16.1773 6.82274 16.2685 6.79457 16.3614C6.76641 16.4542 6.74286 16.5483 6.72392 16.6434C6.70499 16.7386 6.69077 16.8345 6.68126 16.931C6.67175 17.0276 6.66699 17.1244 6.66699 17.2215C6.66699 17.3185 6.67175 17.4153 6.68126 17.5119C6.69077 17.6084 6.70499 17.7043 6.72392 17.7995C6.74286 17.8947 6.76641 17.9887 6.79457 18.0816C6.82274 18.1744 6.8554 18.2657 6.89253 18.3554C6.92967 18.445 6.97111 18.5326 7.01685 18.6182C7.06259 18.7038 7.11242 18.7869 7.16633 18.8676C7.22025 18.9482 7.27798 19.0261 7.33954 19.1012C7.4011 19.1762 7.46619 19.248 7.53481 19.3166C7.60343 19.3852 7.67524 19.4503 7.75025 19.5119C7.82527 19.5734 7.90312 19.6311 7.9838 19.6851C8.06449 19.7389 8.14762 19.7888 8.2332 19.8346C8.31878 19.8803 8.4064 19.9217 8.49605 19.9589C8.58571 19.996 8.67696 20.0286 8.76982 20.0568C8.86268 20.085 8.9567 20.1085 9.05187 20.1275C9.14705 20.1464 9.24292 20.1606 9.33949 20.1701C9.43607 20.1796 9.53287 20.1844 9.62991 20.1844C9.81411 20.1844 9.99671 20.1673 10.1777 20.1333L12.0778 28.6837C12.3791 30.0394 13.5815 31.0039 14.9702 31.0039H25.0313C26.42 31.0039 27.6224 30.0394 27.9236 28.6837L29.8237 20.1335C30.0045 20.1674 30.1869 20.1844 30.3708 20.1844C30.4678 20.1844 30.5646 20.1796 30.6612 20.1701C30.7577 20.1606 30.8536 20.1464 30.9488 20.1275C31.044 20.1085 31.138 20.085 31.2308 20.0568C31.3237 20.0286 31.4149 19.996 31.5046 19.9589C31.5943 19.9217 31.6819 19.8803 31.7675 19.8346C31.853 19.7888 31.9362 19.7389 32.0169 19.6851C32.0976 19.6311 32.1754 19.5734 32.2504 19.5119C32.3254 19.4503 32.3972 19.3852 32.4659 19.3166C32.5345 19.248 32.5996 19.1762 32.6611 19.1012C32.7227 19.0261 32.7804 18.9482 32.8343 18.8676C32.8882 18.7869 32.9381 18.7038 32.9838 18.6182C33.0295 18.5326 33.071 18.445 33.1081 18.3554C33.1452 18.2657 33.1779 18.1744 33.2061 18.0816C33.2342 17.9887 33.2578 17.8947 33.2767 17.7995C33.2956 17.7043 33.3099 17.6084 33.3194 17.5119C33.3289 17.4153 33.3337 17.3185 33.3337 17.2215C33.3337 17.1244 33.3289 17.0276 33.3194 16.931C33.3099 16.8345 33.2956 16.7386 33.2767 16.6434C33.2578 16.5483 33.2342 16.4542 33.2061 16.3614C33.1779 16.2685 33.1452 16.1773 33.1081 16.0876C33.071 15.998 33.0295 15.9103 32.9838 15.8248C32.9381 15.7392 32.8882 15.656 32.8343 15.5754C32.7804 15.4947 32.7227 15.4168 32.6611 15.3418C32.5996 15.2668 32.5345 15.195 32.4659 15.1264C32.3972 15.0577 32.3254 14.9927 32.2504 14.9311C32.1754 14.8695 32.0976 14.8118 32.0169 14.7579C31.9362 14.704 31.853 14.6541 31.7675 14.6084C31.6819 14.5627 31.5943 14.5212 31.5046 14.4841C31.4149 14.447 31.3237 14.4143 31.2308 14.3861C31.138 14.358 31.044 14.3344 30.9488 14.3155C30.8536 14.2965 30.7577 14.2823 30.6612 14.2728C30.5646 14.2633 30.4678 14.2585 30.3708 14.2585C30.2737 14.2585 30.1769 14.2633 30.0803 14.2728C29.9838 14.2823 29.8879 14.2965 29.7927 14.3155C29.6976 14.3344 29.6036 14.358 29.5107 14.3861C29.4178 14.4143 29.3266 14.447 29.2369 14.4841C29.1472 14.5212 29.0596 14.5627 28.9741 14.6084C28.8885 14.6541 28.8053 14.704 28.7246 14.7579C28.6439 14.8118 28.5661 14.8695 28.4911 14.9311C28.4161 14.9927 28.3443 15.0577 28.2757 15.1264C28.207 15.195 28.1419 15.2668 28.0804 15.3418C28.0189 15.4168 27.9611 15.4947 27.9072 15.5754C27.8533 15.656 27.8034 15.7392 27.7577 15.8248C27.712 15.9103 27.6705 15.998 27.6334 16.0876C27.5963 16.1773 27.5636 16.2685 27.5354 16.3614C27.5073 16.4542 27.4837 16.5483 27.4648 16.6434C27.4459 16.7386 27.4316 16.8345 27.4221 16.931C27.4126 17.0276 27.4078 17.1244 27.4078 17.2215C27.4078 17.5199 27.4519 17.8116 27.5401 18.0967C27.6282 18.3817 27.7565 18.6474 27.9249 18.8938L24.4451 20.6337L20.5851 14.2003Z" fill="#73481A"/>
</g>
<defs>
<linearGradient id="paint0_linear_223_2175" x1="0" y1="20" x2="40" y2="20" gradientUnits="userSpaceOnUse">
<stop stop-color="#FBCEA5"/>
<stop offset="1" stop-color="#F6B771"/>
</linearGradient>
<clipPath id="clip0_223_2175">
<rect width="40" height="40" fill="white"/>
</clipPath>
</defs>
</svg>
