<svg width="20" height="20" viewBox="0 0 20 20" fill="none" xmlns="http://www.w3.org/2000/svg">
<path fill-rule="evenodd" clip-rule="evenodd" d="M13.091 15.815C13.402 15.3023 13.4386 14.7468 13.2006 14.1485L13.1957 14.1361L13.1903 14.1238C12.6337 12.8451 11.9672 11.8129 11.1908 11.0271C11.0751 10.9058 11.0579 10.7792 11.1392 10.6472C11.6137 9.83906 11.851 8.97242 11.851 8.04727C11.851 6.76982 11.4369 5.67177 10.6088 4.75311C9.75751 3.80877 8.72578 3.33551 7.51359 3.33331L7.50617 3.33331C6.29497 3.33551 5.26374 3.80877 4.41247 4.75311C3.58435 5.67177 3.17029 6.76982 3.17029 8.04727C3.17029 8.9724 3.41067 9.84425 3.89144 10.6628C3.96645 10.7844 3.94952 10.9023 3.84064 11.0166C3.05752 11.8093 2.38762 12.8451 1.83093 14.1238L1.82559 14.1361L1.82064 14.1485C1.58278 14.7467 1.61935 15.3023 1.93035 15.8154C2.27505 16.3829 2.75128 16.6666 3.35903 16.6666H11.6622C12.2702 16.6666 12.7464 16.3828 13.091 15.815ZM11.6558 14.7745C11.1832 13.6926 10.6262 12.8268 9.98474 12.1774C9.67836 11.8562 9.49819 11.4749 9.44422 11.0338C9.38889 10.5814 9.47481 10.1713 9.70199 9.80331C10.0235 9.25569 10.1843 8.67034 10.1843 8.04727C10.1843 7.1967 9.91314 6.47062 9.37085 5.86904C8.84975 5.29097 8.23066 5.00128 7.51359 4.99998L7.50919 4.99998C6.7911 5.00128 6.17151 5.29097 5.6504 5.86904C5.10811 6.47062 4.83696 7.1967 4.83696 8.04727C4.83696 8.67032 4.9946 9.25046 5.30988 9.78769C5.54332 10.1661 5.63237 10.5814 5.57704 11.0338C5.52307 11.4749 5.3395 11.8597 5.02632 12.1879C4.39165 12.8304 3.83802 13.6926 3.36541 14.7745C3.33543 14.8538 3.3319 14.9123 3.35483 14.9502C3.36827 14.9723 3.38104 14.9889 3.39313 15H11.628C11.6401 14.989 11.6527 14.9725 11.6661 14.9505C11.6892 14.9124 11.6858 14.8537 11.6558 14.7745Z" fill="#262626"/>
<path fill-rule="evenodd" clip-rule="evenodd" d="M12.4941 3.33331C11.2829 3.33551 10.2517 3.80877 9.40039 4.75311L10.6383 5.86904C11.1594 5.29097 11.779 5.00128 12.4971 4.99998L12.5015 4.99998C13.2186 5.00128 13.8377 5.29097 14.3588 5.86904C14.9011 6.47062 15.1722 7.1967 15.1722 8.04727C15.1722 8.67034 15.0114 9.25569 14.6899 9.80331C14.4627 10.1713 14.3768 10.5814 14.4321 11.0338C14.4861 11.4749 14.6663 11.8562 14.9727 12.1774C15.6141 12.8268 16.1711 13.6925 16.6438 14.7745C16.6737 14.8537 16.6771 14.9124 16.654 14.9505C16.6407 14.9725 16.628 14.989 16.616 15H11.2482V16.6666H16.6502C17.2581 16.6666 17.7343 16.3828 18.0789 15.815C18.3899 15.3023 18.4265 14.7468 18.1885 14.1485L18.1836 14.1361L18.1782 14.1238C17.6216 12.8451 16.9551 11.8129 16.1787 11.0271C16.0631 10.9058 16.0459 10.7792 16.1271 10.6472C16.6016 9.83906 16.8389 8.97242 16.8389 8.04727C16.8389 6.76982 16.4248 5.67177 15.5967 4.75311C14.7454 3.80877 13.7137 3.33551 12.5015 3.33331L12.4941 3.33331Z" fill="#262626"/>
</svg>
